<svg width="18" height="19" viewBox="0 0 18 19" fill="none" xmlns="http://www.w3.org/2000/svg">
<g clip-path="url(#clip0_182_193)">
<path d="M8.30465 2.79139C8.18893 2.0294 7.95493 1.25807 7.61408 0.504395C5.84406 0.753286 4.24196 1.52459 2.96851 2.65766L7.36793 7.05711C8.22748 5.96398 8.55971 4.4709 8.30465 2.79139Z" fill="white"/>
<path d="M7.37252 8.52997C6.32181 9.39752 4.96998 9.85076 3.45117 9.8508C3.04877 9.8508 2.63481 9.819 2.21149 9.75475C1.47195 9.64243 0.726487 9.43174 -0.00508768 9.13114C-0.0058843 9.18153 -0.00695801 9.23189 -0.00695801 9.2825C-0.00695801 11.544 0.840196 13.6074 2.23383 15.1737L8.12504 9.2825L7.37252 8.52997Z" fill="white"/>
<path d="M6.63335 7.79029L2.23389 3.39087C1.10082 4.66432 0.329519 6.26639 0.0806274 8.03641C0.834334 8.37726 1.60571 8.61133 2.36759 8.72705C4.04721 8.98214 5.54025 8.64984 6.63335 7.79029Z" fill="white"/>
<path d="M15.352 9.83813C13.6725 9.583 12.1794 9.91529 11.0863 10.7748L15.4857 15.1743C16.6188 13.9008 17.3901 12.2987 17.639 10.5287C16.8854 10.1879 16.1141 9.95388 15.352 9.83813Z" fill="white"/>
<path d="M9.61207 10.7706L8.85972 10.0182L2.96851 15.9095C4.53483 17.3031 6.59818 18.1503 8.85972 18.1503C8.91032 18.1503 8.96068 18.1492 9.01108 18.1483C8.71051 17.4168 8.49979 16.6713 8.38746 15.9318C8.08059 13.9107 8.51468 12.0996 9.61207 10.7706Z" fill="white"/>
<path d="M8.10736 7.79578L8.85972 8.54814L14.7509 2.65693C13.1846 1.26326 11.1213 0.416138 8.85972 0.416138C8.80911 0.416138 8.75875 0.417211 8.70836 0.418043C9.00893 1.14958 9.21965 1.89498 9.33197 2.63462C9.63885 4.65565 9.20476 6.46674 8.10736 7.79578Z" fill="white"/>
<path d="M9.41457 15.7751C9.53026 16.537 9.76436 17.3084 10.1052 18.0621C11.8752 17.8132 13.4773 17.0419 14.7507 15.9089L10.3513 11.5094C9.49174 12.6025 9.15952 14.0956 9.41457 15.7751Z" fill="white"/>
<path d="M10.3471 10.0345C11.6761 8.93704 13.4872 8.50299 15.5082 8.80986C16.2479 8.92218 16.9933 9.13294 17.7248 9.43348C17.7257 9.38308 17.7267 9.33272 17.7267 9.28208C17.7267 7.02055 16.8796 4.9572 15.4859 3.39087L9.59473 9.28212L10.3471 10.0345Z" fill="white"/>
</g>
<defs>
<clipPath id="clip0_182_193">
<rect width="17.7335" height="17.7335" fill="white" transform="translate(-0.00689697 0.417664)"/>
</clipPath>
</defs>
</svg>
