<svg width="24" height="24" viewBox="0 0 24 24" fill="none" xmlns="http://www.w3.org/2000/svg">
<path fill-rule="evenodd" clip-rule="evenodd" d="M16.6094 3.59857L16.6104 4.31696C19.2502 4.52386 20.9941 6.32271 20.9969 9.08132L21.0073 17.156C21.0111 20.1637 19.1216 22.0143 16.0928 22.0191L8.69455 22.0286C5.68472 22.0325 3.77152 20.1378 3.76774 17.1215L3.75733 9.14167C3.75355 6.36485 5.43587 4.57079 8.07574 4.32845L8.07479 3.61006C8.07385 3.18861 8.38609 2.87156 8.80241 2.87156C9.21873 2.8706 9.53098 3.18669 9.53192 3.60815L9.53287 4.27865L15.1532 4.27098L15.1523 3.60049C15.1513 3.17903 15.4636 2.86294 15.8799 2.86198C16.2868 2.86102 16.6085 3.17711 16.6094 3.59857ZM5.21542 9.43759L19.5407 9.41843V9.08318C19.5 7.0238 18.4668 5.94334 16.6123 5.78242L16.6132 6.51997C16.6132 6.93184 16.2925 7.25847 15.8856 7.25847C15.4693 7.25943 15.1561 6.93376 15.1561 6.52188L15.1551 5.74602L9.53478 5.75368L9.53572 6.52859C9.53572 6.94142 9.22443 7.26709 8.8081 7.26709C8.39178 7.26805 8.07859 6.94334 8.07859 6.5305L8.07765 5.79295C6.23258 5.97782 5.21164 7.06211 5.21448 9.13969L5.21542 9.43759ZM15.4873 13.791V13.8015C15.4968 14.2422 15.8563 14.5764 16.2925 14.5669C16.7183 14.5563 17.058 14.1914 17.0485 13.7508C17.0287 13.3293 16.6871 12.9855 16.2622 12.9864C15.827 12.996 15.4864 13.3504 15.4873 13.791ZM16.2688 18.0918C15.8335 18.0822 15.4825 17.7192 15.4815 17.2786C15.4721 16.8379 15.8212 16.473 16.2565 16.4625H16.2659C16.7106 16.4625 17.0711 16.8255 17.0711 17.2757C17.0721 17.7259 16.7125 18.0908 16.2688 18.0918ZM11.5889 13.8064C11.6079 14.2471 11.9684 14.5909 12.4036 14.5718C12.8294 14.5517 13.1691 14.1877 13.1501 13.7471C13.1397 13.316 12.7896 12.9808 12.3639 12.9817C11.9286 13.0009 11.588 13.3658 11.5889 13.8064ZM12.4075 18.0488C11.9722 18.0679 11.6127 17.7241 11.5928 17.2834C11.5928 16.8428 11.9325 16.4788 12.3677 16.4587C12.7935 16.4578 13.1445 16.793 13.154 17.2231C13.1739 17.6647 12.8332 18.0287 12.4075 18.0488ZM7.69067 13.8399C7.7096 14.2805 8.0701 14.6253 8.50534 14.6052C8.93113 14.5861 9.27081 14.2211 9.25094 13.7805C9.24148 13.3495 8.89139 13.0142 8.46466 13.0152C8.02941 13.0343 7.68973 13.3993 7.69067 13.8399ZM8.50909 18.0534C8.07384 18.0736 7.71429 17.7287 7.69442 17.2881C7.69347 16.8475 8.0341 16.4826 8.46935 16.4634C8.89513 16.4624 9.24617 16.7977 9.25563 17.2287C9.2755 17.6693 8.93582 18.0343 8.50909 18.0534Z" fill="black"/>
</svg>
