<svg width="18" height="18" viewBox="0 0 18 18" fill="none" xmlns="http://www.w3.org/2000/svg">
<path d="M13.7071 11.6671L16.3552 14.3152C16.7113 14.6713 16.7113 15.2486 16.3552 15.6047C14.43 17.5299 11.3821 17.7466 9.20399 16.113L7.62857 14.9314C5.88504 13.6237 4.33622 12.0749 3.02857 10.3314L1.84701 8.75597C0.213407 6.57784 0.430014 3.52995 2.35523 1.60473C2.71133 1.24863 3.28867 1.24863 3.64477 1.60473L6.29289 4.25285C6.68342 4.64338 6.68342 5.27654 6.29289 5.66707L5.27175 6.68822C5.10946 6.8505 5.06923 7.09842 5.17187 7.30369C6.35853 9.67702 8.28294 11.6014 10.6563 12.7881C10.8615 12.8907 11.1095 12.8505 11.2717 12.6882L12.2929 11.6671C12.6834 11.2765 13.3166 11.2765 13.7071 11.6671Z" stroke="#A2A2A7"/>
</svg>
