<svg width="24" height="24" viewBox="0 0 24 24" fill="none" xmlns="http://www.w3.org/2000/svg">
<path opacity="0.3" d="M12.3823 13.5234C12.9778 13.5234 13.4604 13.0407 13.4604 12.4453C13.4604 11.8499 12.9778 11.3672 12.3823 11.3672C11.7869 11.3672 11.3042 11.8499 11.3042 12.4453C11.3042 13.0407 11.7869 13.5234 12.3823 13.5234Z" fill="#5669FF"/>
<path d="M12.3823 3.10156C7.23023 3.10156 3.03857 7.29322 3.03857 12.4453C3.03857 17.5974 7.23023 21.7891 12.3823 21.7891C17.5344 21.7891 21.7261 17.5974 21.7261 12.4453C21.7261 7.29322 17.5344 3.10156 12.3823 3.10156ZM17.1023 8.19256L14.9963 13.4574C14.8517 13.819 14.6352 14.1474 14.3598 14.4228C14.0844 14.6982 13.756 14.9147 13.3944 15.0593L8.12957 17.1653C8.06426 17.1914 7.99272 17.1978 7.92381 17.1837C7.8549 17.1695 7.79165 17.1355 7.74191 17.0857C7.69216 17.036 7.65811 16.9727 7.64398 16.9038C7.62984 16.8349 7.63624 16.7634 7.66238 16.6981L9.76832 11.4332C9.91292 11.0716 10.1295 10.7432 10.4048 10.4678C10.6802 10.1925 11.0086 9.97591 11.3702 9.83131L16.6351 7.72537C16.7004 7.69923 16.7719 7.69283 16.8408 7.70697C16.9098 7.7211 16.973 7.75515 17.0227 7.80489C17.0725 7.85464 17.1065 7.91788 17.1207 7.98679C17.1348 8.05571 17.1284 8.12725 17.1023 8.19256Z" fill="#E8395B"/>
</svg>
