<svg width="22" height="23" viewBox="0 0 22 23" fill="none" xmlns="http://www.w3.org/2000/svg">
<g clip-path="url(#clip0_9_1178)">
<path d="M9.33507 13.6284C8.41435 12.7077 8.41435 11.2138 9.33507 10.2912C10.2558 9.37053 11.7497 9.37053 12.6722 10.2912C13.5929 11.212 13.5929 12.7058 12.6722 13.6284C11.7497 14.5509 10.2567 14.5509 9.33507 13.6284Z" stroke="#A2A2A7" stroke-width="1.3" stroke-linecap="round" stroke-linejoin="round"/>
<path d="M18.3395 11.9621C18.3395 12.4803 18.2157 12.9929 17.9764 13.4652C16.7411 15.899 14.012 17.4644 11.0031 17.4644C7.9943 17.4644 5.26516 15.899 4.0299 13.4652C3.79055 12.9929 3.66675 12.4803 3.66675 11.9621C3.66675 11.444 3.79055 10.9314 4.0299 10.4591C5.26516 8.02524 7.9943 6.45984 11.0031 6.45984C14.012 6.45984 16.7411 8.02524 17.9764 10.4591C18.2157 10.9314 18.3395 11.444 18.3395 11.9621Z" stroke="#A2A2A7" stroke-width="1.3" stroke-linecap="round" stroke-linejoin="round"/>
</g>
<defs>
<clipPath id="clip0_9_1178">
<rect width="22" height="22" fill="white" transform="translate(0 0.959961)"/>
</clipPath>
</defs>
</svg>
