<svg width="25" height="25" viewBox="0 0 25 25" fill="none" xmlns="http://www.w3.org/2000/svg">
<path d="M12.6623 2.71796C7.34149 2.71796 3.01257 7.04687 3.01257 12.3677C3.01257 17.6885 7.34149 22.0174 12.6623 22.0174C17.9831 22.0174 22.312 17.6885 22.312 12.3677C22.312 7.04687 17.9831 2.71796 12.6623 2.71796ZM14.1469 16.8214H11.1777C10.9808 16.8214 10.792 16.7432 10.6528 16.604C10.5136 16.4648 10.4354 16.276 10.4354 16.0791C10.4354 15.8822 10.5136 15.6934 10.6528 15.5542C10.792 15.415 10.9808 15.3368 11.1777 15.3368H14.1469C14.3437 15.3368 14.5325 15.415 14.6717 15.5542C14.8109 15.6934 14.8891 15.8822 14.8891 16.0791C14.8891 16.276 14.8109 16.4648 14.6717 16.604C14.5325 16.7432 14.3437 16.8214 14.1469 16.8214ZM16.3737 13.8522H8.95086C8.75399 13.8522 8.56519 13.774 8.42598 13.6348C8.28678 13.4956 8.20857 13.3068 8.20857 13.11C8.20857 12.9131 8.28678 12.7243 8.42598 12.5851C8.56519 12.4459 8.75399 12.3677 8.95086 12.3677H16.3737C16.5706 12.3677 16.7594 12.4459 16.8986 12.5851C17.0378 12.7243 17.116 12.9131 17.116 13.11C17.116 13.3068 17.0378 13.4956 16.8986 13.6348C16.7594 13.774 16.5706 13.8522 16.3737 13.8522ZM17.8583 10.8831H7.46629C7.26942 10.8831 7.08062 10.8049 6.94141 10.6657C6.80221 10.5265 6.724 10.3377 6.724 10.1408C6.724 9.94394 6.80221 9.75514 6.94141 9.61594C7.08062 9.47673 7.26942 9.39853 7.46629 9.39853H17.8583C18.0551 9.39853 18.244 9.47673 18.3832 9.61594C18.5224 9.75514 18.6006 9.94394 18.6006 10.1408C18.6006 10.3377 18.5224 10.5265 18.3832 10.6657C18.244 10.8049 18.0551 10.8831 17.8583 10.8831Z" fill="white"/>
</svg>
