<svg width="19" height="19" viewBox="0 0 19 19" fill="none" xmlns="http://www.w3.org/2000/svg">
<g clip-path="url(#clip0_182_207)">
<path d="M17.9673 15.8943L11.035 8.962L2.93589 0.862854H2.30293L2.17369 1.19126C1.83258 2.05808 1.68683 2.94465 1.75226 3.75501C1.82685 4.67873 2.17777 5.47846 2.76714 6.06784L9.08976 12.3905L9.92371 11.5565L15.769 18.0926C16.3504 18.6741 17.3513 18.7086 17.9673 18.0926C18.5734 17.4865 18.5734 16.5004 17.9673 15.8943Z" fill="white"/>
<path d="M6.15957 10.9269L1.20771 15.8788C0.60166 16.4848 0.60166 17.471 1.20771 18.0771C1.78345 18.6528 2.77944 18.7037 3.40601 18.0771L8.35789 13.1252L6.15957 10.9269Z" fill="white"/>
<path d="M17.676 3.8061L14.8671 6.61505L14.1343 5.88227L16.9432 3.07329L16.2105 2.34052L13.4015 5.14946L12.6687 4.41668L15.4777 1.60774L14.745 0.875L11.0811 4.53888C10.6329 4.9871 10.3652 5.58225 10.3274 6.21475C10.3178 6.375 10.2815 6.53262 10.2213 6.68255L12.6013 9.0626C12.7512 9.00228 12.9089 8.96599 13.0691 8.95643C13.7016 8.91869 14.2968 8.65098 14.745 8.20276L18.4089 4.53892L17.676 3.8061Z" fill="white"/>
</g>
<defs>
<clipPath id="clip0_182_207">
<rect width="17.6789" height="17.6789" fill="white" transform="translate(0.747742 0.86322)"/>
</clipPath>
</defs>
</svg>
