<svg width="25" height="24" viewBox="0 0 25 24" fill="none" xmlns="http://www.w3.org/2000/svg">
<path fill-rule="evenodd" clip-rule="evenodd" d="M4.3788 5.87868C3.50012 6.75736 3.50012 8.17157 3.50012 11V13C3.50012 15.8284 3.50012 17.2426 4.3788 18.1213C5.25748 19 6.67169 19 9.50012 19H15.5001C18.3285 19 19.7428 19 20.6214 18.1213C21.5001 17.2426 21.5001 15.8284 21.5001 13V11C21.5001 8.17157 21.5001 6.75736 20.6214 5.87868C19.7428 5 18.3285 5 15.5001 5H9.50012C6.67169 5 5.25748 5 4.3788 5.87868ZM7.05482 8.16795C6.59529 7.8616 5.97442 7.98577 5.66807 8.4453C5.36172 8.90483 5.48589 9.5257 5.94542 9.83205L11.3907 13.4622C12.0625 13.9101 12.9377 13.9101 13.6095 13.4622L19.0548 9.83205C19.5144 9.5257 19.6385 8.90483 19.3322 8.4453C19.0258 7.98577 18.405 7.8616 17.9454 8.16795L12.5001 11.7982L7.05482 8.16795Z" fill="white"/>
</svg>
