<svg width="19" height="19" viewBox="0 0 19 19" fill="none" xmlns="http://www.w3.org/2000/svg">
<g clip-path="url(#clip0_182_186)">
<path d="M6.83729 3.74552V12.599C6.27365 12.0861 5.52506 11.7732 4.70489 11.7732C2.95593 11.7732 1.53302 13.1961 1.53302 14.945C1.53302 16.694 2.95593 18.1169 4.70489 18.1169C6.4517 18.1169 7.87298 16.6975 7.87663 14.9517H7.87677V8.62524L16.9857 5.88793V10.4651C16.4221 9.95236 15.6735 9.63928 14.8533 9.63928C13.1043 9.63928 11.6814 11.0622 11.6814 12.8112C11.6814 14.5601 13.1043 15.983 14.8533 15.983C16.5963 15.983 18.0153 14.5697 18.0249 12.8289H18.0252V0.383423L6.83729 3.74552Z" fill="white"/>
</g>
<defs>
<clipPath id="clip0_182_186">
<rect width="17.7335" height="17.7335" fill="white" transform="translate(0.909546 0.417725)"/>
</clipPath>
</defs>
</svg>
