<svg width="19" height="19" viewBox="0 0 19 19" fill="none" xmlns="http://www.w3.org/2000/svg">
<g clip-path="url(#clip0_182_223)">
<path d="M12.7098 11.4332C14.3992 11.4033 14.771 9.07925 13.1768 8.52576L11.3361 10.522C11.5658 11.0628 12.1073 11.4332 12.7098 11.4332Z" fill="white"/>
<path d="M18.1616 8.41714C17.925 6.99737 17.2598 5.90153 16.227 5.21728C15.7459 5.73943 14.4205 7.17631 13.9203 7.71904C14.7251 8.15522 15.2403 8.99988 15.2403 9.94224C15.2459 12.1263 12.6103 13.2862 11.0042 11.8114C10.851 12.1502 10.6362 12.462 10.3657 12.7326C9.29321 13.8953 5.97122 14.1763 4.55317 14.135C4.51174 12.7135 4.79396 9.39307 5.95566 8.32256C6.54841 7.73012 7.3217 7.42628 8.10019 7.41138C8.95212 6.62316 10.1335 5.52992 10.982 4.74472C9.80346 5.05528 8.07722 5.87749 7.55071 5.10122C7.30431 4.51969 8.4245 3.16841 7.54066 2.0344C6.81633 1.12492 5.19523 1.29575 4.27913 1.94189C-0.181278 5.0215 -0.777701 11.7877 3.11618 15.5517C7.88299 20.3552 16.1983 18.179 18.0251 11.6697C18.1243 11.26 18.4082 9.91695 18.1616 8.41714Z" fill="white"/>
<path d="M10.3657 8.32248C10.6553 8.61211 10.8809 8.94852 11.0354 9.31473C11.6254 8.67576 14.7404 5.29612 15.2576 4.73562L18.0234 1.73601C18.3255 1.40827 18.3335 0.923228 18.0418 0.631166C17.7493 0.339104 17.2636 0.347419 16.9359 0.650567L12.891 4.39402C12.0127 5.20656 10.2658 6.82381 9.36963 7.65312C9.73202 7.80487 10.0712 8.02799 10.3657 8.32248Z" fill="white"/>
<path d="M9.07591 8.66029C8.28679 8.27628 7.33051 8.41892 6.69057 9.05664C6.0296 9.64104 5.65432 11.8651 5.61621 13.0714C6.82596 13.032 9.04466 12.6589 9.63059 11.997C10.0235 11.6041 10.2397 11.082 10.2397 10.527C10.2396 9.97121 10.0231 9.44907 9.63059 9.05698V9.05664C9.46429 8.88999 9.27651 8.75799 9.07591 8.66029Z" fill="white"/>
</g>
<defs>
<clipPath id="clip0_182_223">
<rect width="17.7335" height="17.7335" fill="white" transform="translate(0.52832 0.417664)"/>
</clipPath>
</defs>
</svg>
