<svg width="22" height="23" viewBox="0 0 22 23" fill="none" xmlns="http://www.w3.org/2000/svg">
<g clip-path="url(#clip0_9_1179)">
<path d="M7.33325 10.1266V7.37663C7.33325 5.35171 8.975 3.70996 10.9999 3.70996C13.0248 3.70996 14.6666 5.35171 14.6666 7.37663V10.1266" stroke="#A2A2A7" stroke-width="1.3" stroke-linecap="round" stroke-linejoin="round"/>
<path d="M15.5833 20.2099H6.41659C5.40367 20.2099 4.58325 19.3895 4.58325 18.3766V11.9599C4.58325 10.947 5.40367 10.1266 6.41659 10.1266H15.5833C16.5962 10.1266 17.4166 10.947 17.4166 11.9599V18.3766C17.4166 19.3895 16.5962 20.2099 15.5833 20.2099Z" stroke="#A2A2A7" stroke-width="1.3" stroke-linecap="round" stroke-linejoin="round"/>
<path d="M8.24994 15.2059C8.24719 15.2059 8.24536 15.2078 8.24536 15.2105C8.24536 15.2133 8.24719 15.2151 8.24994 15.2151C8.25269 15.2151 8.25453 15.2133 8.25453 15.2105C8.25453 15.2078 8.25269 15.2059 8.24994 15.2059Z" stroke="#A2A2A7" stroke-width="1.5" stroke-linecap="round" stroke-linejoin="round"/>
<path d="M11.0046 15.2059C11.0018 15.2059 11 15.2078 11 15.2105C11 15.2133 11.0046 15.2151 11.0046 15.2151C11.0073 15.2151 11.0092 15.2133 11.0092 15.2105C11.0092 15.2078 11.0073 15.2059 11.0046 15.2059Z" stroke="#A2A2A7" stroke-width="1.5" stroke-linecap="round" stroke-linejoin="round"/>
<path d="M13.7499 15.2059C13.7472 15.2059 13.7454 15.2078 13.7454 15.2105C13.7454 15.2133 13.7472 15.2151 13.7499 15.2151C13.7527 15.2151 13.7545 15.2133 13.7545 15.2105C13.7545 15.2078 13.7527 15.2059 13.7499 15.2059Z" stroke="#A2A2A7" stroke-width="1.5" stroke-linecap="round" stroke-linejoin="round"/>
</g>
<defs>
<clipPath id="clip0_9_1179">
<rect width="22" height="22" fill="white" transform="translate(0 0.959961)"/>
</clipPath>
</defs>
</svg>
