<svg width="24" height="24" viewBox="0 0 24 24" fill="none" xmlns="http://www.w3.org/2000/svg">
<path fill-rule="evenodd" clip-rule="evenodd" d="M17.4163 8.03732C17.4163 10.8956 15.1632 13.2127 12.3838 13.2127C9.60443 13.2127 7.3513 10.8956 7.3513 8.03732C7.3513 5.17906 9.60443 2.86198 12.3838 2.86198C15.1632 2.86198 17.4163 5.17906 17.4163 8.03732ZM16.7033 16.1286C18.3034 16.4526 19.3481 16.9812 19.7958 17.8338C20.132 18.4992 20.132 19.2914 19.7958 19.9568C19.3481 20.8094 18.3449 21.3721 16.6867 21.662C15.9479 21.811 15.1999 21.9079 14.4482 21.9519C13.7518 22.0286 13.0554 22.0286 12.3506 22.0286H11.0822C10.8168 21.9945 10.5598 21.9775 10.3111 21.9775C9.55936 21.9388 8.81127 21.8448 8.0726 21.6961C6.47247 21.3892 5.42784 20.8435 4.98013 19.9909C4.8073 19.6606 4.71619 19.2917 4.71483 18.9166C4.71123 18.5393 4.79959 18.167 4.97184 17.8338C5.41125 16.9812 6.45589 16.427 8.0726 16.1286C8.81453 15.983 9.56516 15.889 10.3194 15.8472C11.6991 15.736 13.0851 15.736 14.4648 15.8472C15.2161 15.891 15.9639 15.985 16.7033 16.1286Z" fill="black"/>
</svg>
